<?xml version="1.0" standalone="no"?>
<!DOCTYPE svg PUBLIC "-//W3C//DTD SVG 20010904//EN"
 "http://www.w3.org/TR/2001/REC-SVG-20010904/DTD/svg10.dtd">
<svg version="1.0" xmlns="http://www.w3.org/2000/svg"
 width="871.000000pt" height="288.000000pt" viewBox="0 0 871.000000 288.000000"
 preserveAspectRatio="xMidYMid meet">

<g transform="translate(0.000000,288.000000) scale(0.100000,-0.100000)"
fill="#000000" stroke="none">
<path d="M1517 2580 c-317 -50 -568 -183 -754 -399 -168 -197 -259 -416 -285
-692 -21 -226 14 -421 112 -626 175 -368 509 -623 915 -698 139 -26 327 -17
467 24 241 69 399 161 569 331 237 235 360 506 376 830 7 152 -7 269 -49 399
-131 414 -457 715 -878 812 -98 23 -377 34 -473 19z m418 -114 c449 -90 798
-447 870 -890 57 -352 -54 -707 -304 -969 -71 -74 -164 -156 -148 -130 4 6
-23 -9 -60 -34 -131 -87 -300 -161 -423 -183 -134 -24 -309 -9 -484 42 -235
68 -491 252 -626 448 -183 268 -249 588 -180 876 81 341 316 622 638 763 88
39 227 78 317 90 89 13 309 5 400 -13z"/>
<path d="M1614 2246 c-54 -24 -84 -75 -100 -171 -15 -83 -14 -89 6 -150 16
-49 31 -73 63 -100 22 -19 47 -35 54 -35 35 0 6 -19 -59 -40 -54 -17 -256
-108 -275 -124 -1 -1 -16 -112 -33 -246 -20 -158 -36 -253 -46 -268 -16 -25
-77 -55 -204 -103 -74 -27 -75 -28 -72 -61 6 -74 21 -97 83 -128 l59 -30 0
-65 c0 -57 3 -66 24 -80 13 -9 62 -20 108 -25 45 -5 117 -16 158 -25 44 -10
149 -18 255 -21 152 -5 202 -3 320 15 77 12 178 26 224 32 118 14 120 15 123
102 l3 72 53 25 c56 27 51 18 88 151 3 12 -4 19 -23 24 -61 15 -236 88 -259
108 -23 21 -26 34 -44 207 -21 195 -35 294 -45 310 -10 15 -213 109 -275 126
-67 20 -82 32 -56 48 45 26 100 84 117 121 20 44 24 90 9 100 -5 3 -10 29 -10
56 0 82 -30 133 -104 176 -28 16 -103 16 -142 -1z m110 -865 c15 -28 40 -41
84 -41 29 0 28 -7 -4 -33 -23 -18 -26 -26 -22 -69 3 -26 1 -48 -3 -48 -5 0
-24 7 -43 16 -33 16 -36 16 -71 -6 -20 -12 -39 -19 -43 -16 -3 4 -5 25 -3 48
2 34 -2 45 -29 73 l-32 33 46 7 c36 6 52 15 68 36 27 36 34 36 52 0z m-269
-217 c33 -90 36 -106 26 -140 -21 -74 -16 -90 42 -133 71 -55 156 -134 135
-128 -9 3 -34 11 -55 16 -21 6 -72 31 -113 56 -58 34 -85 45 -118 45 -24 0
-66 10 -94 22 l-50 21 54 51 55 51 7 75 c8 85 25 190 33 204 11 17 42 -40 78
-140z m553 69 c6 -16 16 -55 22 -88 5 -33 17 -81 25 -106 14 -42 23 -50 78
-80 l62 -33 -40 -18 c-22 -9 -59 -18 -83 -18 -54 0 -99 -19 -183 -76 -48 -33
-74 -45 -95 -42 -27 3 -26 4 50 82 63 63 76 83 71 100 -21 70 -18 104 18 183
20 43 39 88 42 101 8 30 20 28 33 -5z"/>
<path d="M857 1771 c-24 -41 -21 -83 8 -115 13 -14 30 -26 36 -26 7 0 42 -12
78 -26 36 -15 70 -27 76 -28 5 -1 15 -4 20 -8 6 -3 34 -15 62 -26 64 -24 101
-19 110 16 8 31 -5 53 -43 71 -16 7 -58 33 -94 56 -74 48 -203 115 -223 115
-7 0 -20 -13 -30 -29z"/>
<path d="M2417 1760 c-32 -17 -75 -41 -95 -54 -21 -13 -70 -40 -109 -59 -39
-20 -73 -42 -75 -49 -3 -7 -3 -28 -1 -45 5 -33 27 -44 49 -24 5 5 41 19 79 31
110 36 269 101 277 113 11 17 10 75 -2 98 -15 27 -55 24 -123 -11z"/>
<path d="M865 1551 c34 -97 69 -140 115 -141 14 0 73 -10 132 -22 59 -12 109
-20 112 -18 2 3 7 26 11 52 l7 47 -103 30 c-57 18 -138 45 -179 61 -41 17 -83
30 -92 30 -16 0 -16 -4 -3 -39z"/>
<path d="M2380 1539 c-63 -22 -141 -45 -173 -51 l-58 -12 3 -51 c3 -49 4 -50
37 -53 43 -4 229 35 259 55 24 15 72 105 72 136 0 23 -7 22 -140 -24z"/>
<path d="M980 1314 c0 -39 143 -111 202 -102 20 3 23 9 23 48 0 42 -1 44 -35
51 -67 13 -190 15 -190 3z"/>
<path d="M2290 1314 c-58 -7 -106 -13 -108 -13 -2 -1 -2 -20 0 -43 l3 -43 52
2 c29 1 65 9 80 17 35 18 98 82 86 88 -4 2 -55 -1 -113 -8z"/>
<path d="M3282 1393 l3 -628 123 -3 122 -3 0 599 c0 330 -3 614 -6 631 l-6 31
-119 0 -119 0 2 -627z"/>
<path d="M4067 1720 c-53 -14 -92 -35 -138 -77 l-39 -35 0 51 0 51 -105 0
-105 0 2 -472 3 -473 113 -3 112 -3 0 313 c1 238 4 322 14 351 29 79 80 110
181 111 86 1 131 -21 160 -79 18 -37 20 -66 25 -365 l5 -325 118 -3 119 -3 -4
343 c-4 320 -6 347 -26 409 -45 136 -152 210 -312 215 -47 2 -102 -1 -123 -6z"/>
<path d="M5025 1717 c-58 -19 -82 -34 -130 -78 l-43 -40 2 53 1 53 -101 3
-102 3 5 -463 c2 -255 6 -469 8 -475 3 -9 34 -13 109 -13 l105 0 3 328 3 329
27 40 c34 52 85 75 163 76 79 1 131 -25 159 -79 20 -36 21 -60 26 -364 l5
-325 115 0 115 0 3 270 c4 404 -14 510 -103 600 -61 60 -132 87 -239 91 -58 3
-106 -1 -131 -9z"/>
<path d="M5916 1720 c-96 -25 -198 -98 -252 -182 -40 -63 -65 -154 -71 -262
-10 -183 30 -321 119 -403 53 -48 81 -64 180 -99 65 -24 82 -26 184 -22 102 4
118 7 180 38 121 59 204 169 204 268 l0 34 -47 -7 c-57 -8 -113 -34 -170 -81
-65 -53 -124 -75 -198 -75 -132 0 -225 88 -225 212 l0 39 330 0 330 0 0 63 c0
83 -24 189 -57 257 -38 79 -133 170 -208 199 -68 26 -231 38 -299 21z m224
-200 c19 -10 43 -26 52 -37 22 -24 48 -86 48 -115 l0 -23 -207 2 c-115 2 -209
3 -210 3 -8 1 29 94 47 119 52 74 177 97 270 51z"/>
<path d="M6892 1699 c-23 -12 -60 -42 -82 -67 l-40 -45 0 62 0 61 -104 0 c-94
0 -104 -2 -101 -17 2 -10 4 -224 4 -475 l1 -458 114 0 115 0 3 323 c3 315 4
323 25 353 29 41 76 63 152 70 l61 7 0 103 0 104 -52 0 c-34 0 -69 -8 -96 -21z"/>
</g>
</svg>
