<?xml version="1.0" encoding="UTF-8"?>
<!DOCTYPE svg PUBLIC "-//W3C//DTD SVG 1.1//EN" "http://www.w3.org/Graphics/SVG/1.1/DTD/svg11.dtd">
<svg xmlns="http://www.w3.org/2000/svg" version="1.1" width="871px" height="288px" style="shape-rendering:geometricPrecision; text-rendering:geometricPrecision; image-rendering:optimizeQuality; fill-rule:evenodd; clip-rule:evenodd" xmlns:xlink="http://www.w3.org/1999/xlink">
<g><path style="opacity:1" fill="#f6efe1" d="M -0.5,-0.5 C 245.5,-0.5 491.5,-0.5 737.5,-0.5C 737.881,0.931117 738.881,1.76445 740.5,2C 738.314,2.60361 738.148,3.77028 740,5.5C 746.414,5.87645 746.748,8.54312 741,13.5C 740.374,11.0087 739.541,11.0087 738.5,13.5C 737.914,13.2907 737.414,12.9574 737,12.5C 736.207,16.0465 737.707,17.8798 741.5,18C 738.456,18.3589 738.122,19.0255 740.5,20C 738.18,22.825 736.68,25.6584 736,28.5C 734.887,27.2396 734.72,26.073 735.5,25C 734.672,24.0853 733.672,23.4186 732.5,23C 736.333,21.5 736.5,19.6667 733,17.5C 730.286,18.6661 727.953,17.9995 726,15.5C 723.828,16.6077 723.328,18.1077 724.5,20C 723.457,24.4417 721.29,25.6083 718,23.5C 716.941,23.6301 716.108,24.1301 715.5,25C 716.956,25.4226 717.456,26.2559 717,27.5C 715.933,26.8095 714.766,26.3095 713.5,26C 714.885,24.0355 714.718,22.2021 713,20.5C 712.676,22.5689 711.842,22.9023 710.5,21.5C 709.386,22.723 709.219,24.0563 710,25.5C 710.914,24.3463 711.747,24.513 712.5,26C 710.131,28.5702 708.131,31.4036 706.5,34.5C 707.167,35.5 707.833,36.5 708.5,37.5C 707.478,38.354 706.645,39.354 706,40.5C 705.667,39.8333 705.333,39.1667 705,38.5C 703.938,40.2078 702.771,40.8745 701.5,40.5C 702.263,41.7193 703.263,42.7193 704.5,43.5C 703.691,45.0709 703.357,46.7376 703.5,48.5C 700.802,48.4503 698.636,49.4503 697,51.5C 696.667,51.1667 696.333,50.8333 696,50.5C 692.612,52.851 692.112,55.5176 694.5,58.5C 693.975,59.1924 693.308,59.6924 692.5,60C 693.872,60.6309 695.205,61.2975 696.5,62C 696.355,62.772 696.022,63.4387 695.5,64C 696.974,63.0274 698.474,62.5274 700,62.5C 700.333,63.8333 700.667,65.1667 701,66.5C 701.333,66.1667 701.667,65.8333 702,65.5C 703.249,67.9915 704.416,67.8249 705.5,65C 703.285,64.6124 701.952,63.6124 701.5,62C 704.474,60.4943 704.807,58.8276 702.5,57C 703.641,56.2588 703.641,55.4255 702.5,54.5C 703.665,53.4164 704.998,52.5831 706.5,52C 705.833,51.6667 705.167,51.3333 704.5,51C 705.293,49.9148 705.96,48.7481 706.5,47.5C 707.002,46.479 707.668,46.3123 708.5,47C 707.396,48.1313 707.729,48.9646 709.5,49.5C 711.117,49.3306 712.784,48.9972 714.5,48.5C 712.534,47.5601 710.201,46.3935 707.5,45C 708.966,44.3645 710.3,43.5312 711.5,42.5C 712.5,43.1667 713.5,43.8333 714.5,44.5C 715.333,43.5 716.167,42.5 717,41.5C 717.711,43.3668 717.211,44.8668 715.5,46C 717.46,48.5837 716.96,51.0837 714,53.5C 713.147,51.8753 712.147,51.5419 711,52.5C 710.28,55.1348 709.613,57.8015 709,60.5C 707.951,59.4829 706.784,59.3162 705.5,60C 706.227,61.3988 706.727,62.8988 707,64.5C 707.915,63.6721 708.581,62.6721 709,61.5C 709.346,63.2182 709.846,64.8849 710.5,66.5C 708.02,67.4154 707.353,68.9154 708.5,71C 708,71.1667 707.5,71.3333 707,71.5C 705.832,70.4911 704.665,69.4911 703.5,68.5C 702.062,71.8229 700.229,72.1562 698,69.5C 696.883,70.9494 696.216,72.6161 696,74.5C 694.701,74.0338 693.201,74.0338 691.5,74.5C 692.972,79.106 691.639,79.7727 687.5,76.5C 688.441,76.5105 689.108,76.0105 689.5,75C 689.095,74.0546 688.428,73.3879 687.5,73C 688.654,72.0862 688.487,71.2529 687,70.5C 686.667,71.1667 686.333,71.8333 686,72.5C 685.691,71.2341 685.191,70.0674 684.5,69C 685.888,68.1107 685.722,67.6107 684,67.5C 683.5,67.8333 683,68.1667 682.5,68.5C 684.011,70.8375 683.677,71.5042 681.5,70.5C 680.318,72.6454 678.818,72.6454 677,70.5C 675.954,72.0905 674.787,73.5905 673.5,75C 674.624,75.2492 675.624,75.7492 676.5,76.5C 675.359,77.4255 675.359,78.2588 676.5,79C 674.699,79.3173 674.366,79.984 675.5,81C 676.449,81.6172 677.282,81.4506 678,80.5C 678.333,81.1667 678.667,81.8333 679,82.5C 680.067,80.7174 681.567,80.2174 683.5,81C 681.205,82.6761 680.038,84.8427 680,87.5C 680.414,87.0426 680.914,86.7093 681.5,86.5C 682.861,88.0284 684.028,89.6951 685,91.5C 685.419,90.3279 686.085,89.3279 687,88.5C 687.667,89.8333 688.333,89.8333 689,88.5C 689.492,89.549 689.326,90.549 688.5,91.5C 689.95,92.8498 690.617,94.5165 690.5,96.5C 692.924,96.8076 695.257,96.4742 697.5,95.5C 698.415,93.0197 699.915,92.3531 702,93.5C 703.333,92.1667 704.667,90.8333 706,89.5C 707.237,91.1044 708.403,92.771 709.5,94.5C 710.251,93.624 710.751,92.624 711,91.5C 711.93,93.5431 712.43,95.3764 712.5,97C 711.667,97.8333 710.833,98.6667 710,99.5C 708.951,97.8934 707.451,97.2267 705.5,97.5C 705.649,96.448 705.483,95.448 705,94.5C 704.033,95.6776 703.533,97.011 703.5,98.5C 702.158,99.9023 701.324,99.5689 701,97.5C 698.266,98.3617 698.099,99.195 700.5,100C 699.5,101.667 698.5,103.333 697.5,105C 699.18,105.034 700.68,105.201 702,105.5C 702.903,104.299 704.069,103.465 705.5,103C 702.972,102.331 702.972,101.498 705.5,100.5C 706.478,100.977 707.311,101.643 708,102.5C 709,99.8333 710,99.8333 711,102.5C 712.763,97.223 714.43,97.223 716,102.5C 717.5,99.5 719,96.5 720.5,93.5C 719.754,92.2638 719.421,90.9305 719.5,89.5C 720.873,89.6567 722.207,89.49 723.5,89C 724.673,85.8897 724.173,85.723 722,88.5C 720.883,88.3349 719.716,88.0016 718.5,87.5C 717.117,90.0756 716.283,89.7423 716,86.5C 715.667,86.8333 715.333,87.1667 715,87.5C 713.331,85.8309 712.498,83.8309 712.5,81.5C 711.5,81.5 710.5,81.5 709.5,81.5C 709.491,79.6916 709.991,78.0249 711,76.5C 711.308,77.3081 711.808,77.9747 712.5,78.5C 714.337,76.3552 715.337,74.1885 715.5,72C 712.833,71.3333 712.833,70.6667 715.5,70C 715.167,69.6667 714.833,69.3333 714.5,69C 715.471,67.7964 716.471,67.2964 717.5,67.5C 716.478,66.646 715.645,65.646 715,64.5C 710.962,66.0298 710.462,65.1964 713.5,62C 713.167,61.6667 712.833,61.3333 712.5,61C 716.362,58.677 718.028,59.8437 717.5,64.5C 720.298,63.5354 722.964,63.0354 725.5,63C 724.185,61.6054 724.519,60.6054 726.5,60C 725.833,59.3333 725.167,58.6667 724.5,58C 726.364,56.5945 728.197,56.0945 730,56.5C 730.54,58.1346 730.04,59.4679 728.5,60.5C 730.071,61.2037 731.738,62.537 733.5,64.5C 730.572,65.4841 727.572,65.8174 724.5,65.5C 724.67,66.8221 724.337,67.9887 723.5,69C 721.82,69.0343 720.32,69.201 719,69.5C 718.333,72.1667 718.333,74.8333 719,77.5C 719.654,76.3044 720.154,76.3044 720.5,77.5C 719.167,78.5 717.833,79.5 716.5,80.5C 717.242,81.2868 718.075,81.9535 719,82.5C 721.14,81.2718 722.807,79.6051 724,77.5C 724.333,78.5 724.667,79.5 725,80.5C 725.667,78.5 726.333,76.5 727,74.5C 727.309,75.7659 727.809,76.9326 728.5,78C 728.167,78.3333 727.833,78.6667 727.5,79C 728.766,79.3095 729.933,79.8095 731,80.5C 732.129,78.8588 733.629,77.8588 735.5,77.5C 724.234,87.3546 717.067,99.6879 714,114.5C 708.892,135.346 709.392,156.013 715.5,176.5C 713.951,175.436 712.785,173.436 712,170.5C 711.781,171.938 711.281,173.271 710.5,174.5C 710.704,173.471 710.204,172.471 709,171.5C 708.535,172.931 707.701,174.097 706.5,175C 708.929,175.451 709.096,176.285 707,177.5C 706.167,176.667 705.333,175.833 704.5,175C 705.945,173.29 706.778,171.456 707,169.5C 705.039,172.463 702.706,175.129 700,177.5C 700.052,174.243 701.552,171.743 704.5,170C 702.527,169.505 700.527,169.338 698.5,169.5C 698.034,167.799 698.034,166.299 698.5,165C 697.417,162.944 695.75,161.611 693.5,161C 694.364,159.863 695.364,158.53 696.5,157C 696,156.5 695.5,156 695,155.5C 694.581,156.672 693.915,157.672 693,158.5C 692.773,161.522 693.273,164.022 694.5,166C 692.667,168.107 691.501,170.607 691,173.5C 688.139,173.092 687.972,173.925 690.5,176C 689.284,177.74 687.618,178.74 685.5,179C 685.132,180.473 685.632,181.973 687,183.5C 688.947,184.589 690.781,184.589 692.5,183.5C 690.78,184.92 688.946,186.253 687,187.5C 686.586,187.043 686.086,186.709 685.5,186.5C 684.833,188.833 684.167,191.167 683.5,193.5C 682.667,181.848 682.167,170.181 682,158.5C 681.667,176.167 681.333,193.833 681,211.5C 673.579,212.316 666.079,212.816 658.5,213C 664.833,213.333 671.167,213.667 677.5,214C 672.373,215.526 672.373,216.526 677.5,217C 678.701,217.903 679.535,219.069 680,220.5C 680.423,219.044 681.256,218.544 682.5,219C 681.399,221.292 682.232,222.792 685,223.5C 684.91,220.895 685.577,218.229 687,215.5C 687.5,216 688,216.5 688.5,217C 687.773,219.124 687.106,221.291 686.5,223.5C 687.415,225.98 688.915,226.647 691,225.5C 691.5,227 692,228.5 692.5,230C 691.616,231.098 690.616,231.598 689.5,231.5C 690.428,232.768 690.595,234.101 690,235.5C 689.5,234.333 688.667,233.5 687.5,233C 689.017,230.239 688.184,228.406 685,227.5C 683.956,228.623 683.29,229.956 683,231.5C 681.783,229.48 681.617,227.48 682.5,225.5C 680.302,222.757 678.302,222.923 676.5,226C 677.731,227.183 677.731,228.349 676.5,229.5C 675.3,228.469 673.966,227.635 672.5,227C 673.5,226.667 674.5,226.333 675.5,226C 672.245,224.768 671.912,222.768 674.5,220C 673.234,219.691 672.067,219.191 671,218.5C 670.026,220.878 669.359,220.544 669,217.5C 667.117,218.653 666.284,220.319 666.5,222.5C 663.612,222.22 662.112,223.553 662,226.5C 661.667,226.167 661.333,225.833 661,225.5C 660.564,228.284 659.064,229.45 656.5,229C 656.957,228.586 657.291,228.086 657.5,227.5C 654.833,225.833 654.833,224.167 657.5,222.5C 656.833,221.167 656.167,219.833 655.5,218.5C 653.59,217.288 653.256,217.621 654.5,219.5C 652.808,221.359 651.308,223.359 650,225.5C 648.075,223.027 646.242,223.027 644.5,225.5C 643.253,227.006 643.253,228.506 644.5,230C 642.291,231.873 640.458,234.04 639,236.5C 636.582,234.716 636.249,232.383 638,229.5C 640.122,228.78 640.622,227.613 639.5,226C 640.624,225.751 641.624,225.251 642.5,224.5C 640.724,223.685 640.057,222.518 640.5,221C 638.687,220.386 638.353,220.719 639.5,222C 638.333,222.5 637.5,223.333 637,224.5C 636.107,223.289 635.274,223.289 634.5,224.5C 635.5,225.333 636.5,226.167 637.5,227C 635.73,231.343 633.396,234.843 630.5,237.5C 631.391,238.59 632.391,238.59 633.5,237.5C 633.998,236.397 634.331,235.397 634.5,234.5C 634.833,235.167 635.167,235.833 635.5,236.5C 634.751,238.036 633.751,239.369 632.5,240.5C 636.335,242.163 636.001,242.663 631.5,242C 631.07,241.08 630.736,240.247 630.5,239.5C 628.04,241.096 625.374,242.262 622.5,243C 624.488,243.18 626.488,243.014 628.5,242.5C 628.069,245.854 629.069,248.687 631.5,251C 631.355,251.772 631.022,252.439 630.5,253C 631.428,253.388 632.095,254.055 632.5,255C 631.022,256.478 629.522,257.978 628,259.5C 626.956,258.377 626.29,257.044 626,255.5C 623.314,259.212 624.147,261.712 628.5,263C 627.663,264.011 627.33,265.178 627.5,266.5C 625.5,266.167 623.5,265.833 621.5,265.5C 621.741,262.001 620.908,261.668 619,264.5C 617,262.833 617,261.167 619,259.5C 619.333,260.167 619.667,260.833 620,261.5C 624.901,254.4 623.567,253.067 616,257.5C 614.739,257.241 613.739,256.574 613,255.5C 614.101,257.792 613.268,259.292 610.5,260C 610.843,263.683 611.176,267.349 611.5,271C 610.902,272.301 609.902,273.135 608.5,273.5C 608.304,271.693 607.137,270.026 605,268.5C 604.086,269.654 603.253,269.487 602.5,268C 604.708,266.538 605.374,264.705 604.5,262.5C 602.842,264.323 601.009,265.99 599,267.5C 598.667,266.833 598.333,266.167 598,265.5C 596.748,267.001 595.748,268.668 595,270.5C 592.401,265.632 590.901,260.632 590.5,255.5C 588.885,257.622 588.385,259.955 589,262.5C 589.333,261.833 589.667,261.167 590,260.5C 590.72,262.112 590.554,263.612 589.5,265C 591.836,266.27 591.836,267.77 589.5,269.5C 588.692,269.192 588.025,268.692 587.5,268C 588.051,266.602 588.384,265.268 588.5,264C 585.222,262.608 582.555,261.108 580.5,259.5C 579.749,260.376 579.249,261.376 579,262.5C 578.217,260.567 578.717,259.067 580.5,258C 578.63,256.436 576.63,256.436 574.5,258C 575.747,259.494 575.747,260.994 574.5,262.5C 573.28,261.289 572.113,261.289 571,262.5C 570.544,263.744 571.044,264.577 572.5,265C 570.5,265.667 568.5,265.667 566.5,265C 567.38,263.644 567.714,262.144 567.5,260.5C 570.045,260.849 572.045,260.016 573.5,258C 571.633,257.289 570.133,257.789 569,259.5C 567.989,258.663 566.822,258.33 565.5,258.5C 563.353,267.538 566.186,269.871 574,265.5C 574.333,265.833 574.667,266.167 575,266.5C 576.314,265.687 577.481,264.687 578.5,263.5C 579.5,263.833 580.167,264.5 580.5,265.5C 579.833,265.833 579.167,266.167 578.5,266.5C 579.025,267.192 579.692,267.692 580.5,268C 578.291,269.691 576.458,269.524 575,267.5C 573.881,268.552 573.381,269.719 573.5,271C 571.521,271.684 569.854,271.184 568.5,269.5C 566.917,271.446 566.417,273.446 567,275.5C 566,274.167 565,274.167 564,275.5C 563.667,274.833 563.333,274.167 563,273.5C 559.293,276.416 557.459,280.249 557.5,285C 558.744,285.456 559.577,284.956 560,283.5C 561.333,284.167 562.333,285.167 563,286.5C 566.155,282.722 568.655,279.056 570.5,275.5C 572.311,279.213 571.311,281.546 567.5,282.5C 567.634,284.292 567.301,285.958 566.5,287.5C 377.5,287.5 188.5,287.5 -0.5,287.5C -0.5,191.5 -0.5,95.5 -0.5,-0.5 Z"/></g>
<g><path style="opacity:1" fill="#f4eedf" d="M 737.5,-0.5 C 781.833,-0.5 826.167,-0.5 870.5,-0.5C 870.5,95.5 870.5,191.5 870.5,287.5C 769.167,287.5 667.833,287.5 566.5,287.5C 567.301,285.958 567.634,284.292 567.5,282.5C 571.311,281.546 572.311,279.213 570.5,275.5C 568.655,279.056 566.155,282.722 563,286.5C 562.333,285.167 561.333,284.167 560,283.5C 559.577,284.956 558.744,285.456 557.5,285C 557.459,280.249 559.293,276.416 563,273.5C 563.333,274.167 563.667,274.833 564,275.5C 565,274.167 566,274.167 567,275.5C 566.417,273.446 566.917,271.446 568.5,269.5C 569.854,271.184 571.521,271.684 573.5,271C 573.381,269.719 573.881,268.552 575,267.5C 576.458,269.524 578.291,269.691 580.5,268C 579.692,267.692 579.025,267.192 578.5,266.5C 579.167,266.167 579.833,265.833 580.5,265.5C 580.167,264.5 579.5,263.833 578.5,263.5C 577.481,264.687 576.314,265.687 575,266.5C 574.667,266.167 574.333,265.833 574,265.5C 566.186,269.871 563.353,267.538 565.5,258.5C 566.822,258.33 567.989,258.663 569,259.5C 570.133,257.789 571.633,257.289 573.5,258C 572.045,260.016 570.045,260.849 567.5,260.5C 567.714,262.144 567.38,263.644 566.5,265C 568.5,265.667 570.5,265.667 572.5,265C 571.044,264.577 570.544,263.744 571,262.5C 572.113,261.289 573.28,261.289 574.5,262.5C 575.747,260.994 575.747,259.494 574.5,258C 576.63,256.436 578.63,256.436 580.5,258C 578.717,259.067 578.217,260.567 579,262.5C 579.249,261.376 579.749,260.376 580.5,259.5C 582.555,261.108 585.222,262.608 588.5,264C 588.384,265.268 588.051,266.602 587.5,268C 588.025,268.692 588.692,269.192 589.5,269.5C 591.836,267.77 591.836,266.27 589.5,265C 590.554,263.612 590.72,262.112 590,260.5C 589.667,261.167 589.333,261.833 589,262.5C 588.385,259.955 588.885,257.622 590.5,255.5C 590.901,260.632 592.401,265.632 595,270.5C 595.748,268.668 596.748,267.001 598,265.5C 598.333,266.167 598.667,266.833 599,267.5C 601.009,265.99 602.842,264.323 604.5,262.5C 605.374,264.705 604.708,266.538 602.5,268C 603.253,269.487 604.086,269.654 605,268.5C 607.137,270.026 608.304,271.693 608.5,273.5C 609.902,273.135 610.902,272.301 611.5,271C 611.176,267.349 610.843,263.683 610.5,260C 613.268,259.292 614.101,257.792 613,255.5C 613.739,256.574 614.739,257.241 616,257.5C 623.567,253.067 624.901,254.4 620,261.5C 619.667,260.833 619.333,260.167 619,259.5C 617,261.167 617,262.833 619,264.5C 620.908,261.668 621.741,262.001 621.5,265.5C 623.5,265.833 625.5,266.167 627.5,266.5C 627.33,265.178 627.663,264.011 628.5,263C 624.147,261.712 623.314,259.212 626,255.5C 626.29,257.044 626.956,258.377 628,259.5C 629.522,257.978 631.022,256.478 632.5,255C 632.095,254.055 631.428,253.388 630.5,253C 631.022,252.439 631.355,251.772 631.5,251C 629.069,248.687 628.069,245.854 628.5,242.5C 626.488,243.014 624.488,243.18 622.5,243C 625.374,242.262 628.04,241.096 630.5,239.5C 630.736,240.247 631.07,241.08 631.5,242C 636.001,242.663 636.335,242.163 632.5,240.5C 633.751,239.369 634.751,238.036 635.5,236.5C 635.167,235.833 634.833,235.167 634.5,234.5C 634.331,235.397 633.998,236.397 633.5,237.5C 632.391,238.59 631.391,238.59 630.5,237.5C 633.396,234.843 635.73,231.343 637.5,227C 636.5,226.167 635.5,225.333 634.5,224.5C 635.274,223.289 636.107,223.289 637,224.5C 637.5,223.333 638.333,222.5 639.5,222C 638.353,220.719 638.687,220.386 640.5,221C 640.057,222.518 640.724,223.685 642.5,224.5C 641.624,225.251 640.624,225.751 639.5,226C 640.622,227.613 640.122,228.78 638,229.5C 636.249,232.383 636.582,234.716 639,236.5C 640.458,234.04 642.291,231.873 644.5,230C 643.253,228.506 643.253,227.006 644.5,225.5C 646.242,223.027 648.075,223.027 650,225.5C 651.308,223.359 652.808,221.359 654.5,219.5C 653.256,217.621 653.59,217.288 655.5,218.5C 656.167,219.833 656.833,221.167 657.5,222.5C 654.833,224.167 654.833,225.833 657.5,227.5C 657.291,228.086 656.957,228.586 656.5,229C 659.064,229.45 660.564,228.284 661,225.5C 661.333,225.833 661.667,226.167 662,226.5C 662.112,223.553 663.612,222.22 666.5,222.5C 666.284,220.319 667.117,218.653 669,217.5C 669.359,220.544 670.026,220.878 671,218.5C 672.067,219.191 673.234,219.691 674.5,220C 671.912,222.768 672.245,224.768 675.5,226C 674.5,226.333 673.5,226.667 672.5,227C 673.966,227.635 675.3,228.469 676.5,229.5C 677.731,228.349 677.731,227.183 676.5,226C 678.302,222.923 680.302,222.757 682.5,225.5C 681.617,227.48 681.783,229.48 683,231.5C 683.29,229.956 683.956,228.623 685,227.5C 688.184,228.406 689.017,230.239 687.5,233C 688.667,233.5 689.5,234.333 690,235.5C 690.595,234.101 690.428,232.768 689.5,231.5C 690.616,231.598 691.616,231.098 692.5,230C 692,228.5 691.5,227 691,225.5C 688.915,226.647 687.415,225.98 686.5,223.5C 687.106,221.291 687.773,219.124 688.5,217C 688,216.5 687.5,216 687,215.5C 685.577,218.229 684.91,220.895 685,223.5C 682.232,222.792 681.399,221.292 682.5,219C 681.256,218.544 680.423,219.044 680,220.5C 679.535,219.069 678.701,217.903 677.5,217C 672.373,216.526 672.373,215.526 677.5,214C 671.167,213.667 664.833,213.333 658.5,213C 666.079,212.816 673.579,212.316 681,211.5C 681.333,193.833 681.667,176.167 682,158.5C 682.167,170.181 682.667,181.848 683.5,193.5C 684.167,191.167 684.833,188.833 685.5,186.5C 686.086,186.709 686.586,187.043 687,187.5C 688.946,186.253 690.78,184.92 692.5,183.5C 690.781,184.589 688.947,184.589 687,183.5C 685.632,181.973 685.132,180.473 685.5,179C 687.618,178.74 689.284,177.74 690.5,176C 687.972,173.925 688.139,173.092 691,173.5C 691.501,170.607 692.667,168.107 694.5,166C 693.273,164.022 692.773,161.522 693,158.5C 693.915,157.672 694.581,156.672 695,155.5C 695.5,156 696,156.5 696.5,157C 695.364,158.53 694.364,159.863 693.5,161C 695.75,161.611 697.417,162.944 698.5,165C 698.034,166.299 698.034,167.799 698.5,169.5C 700.527,169.338 702.527,169.505 704.5,170C 701.552,171.743 700.052,174.243 700,177.5C 702.706,175.129 705.039,172.463 707,169.5C 706.778,171.456 705.945,173.29 704.5,175C 705.333,175.833 706.167,176.667 707,177.5C 709.096,176.285 708.929,175.451 706.5,175C 707.701,174.097 708.535,172.931 709,171.5C 710.204,172.471 710.704,173.471 710.5,174.5C 711.281,173.271 711.781,171.938 712,170.5C 712.785,173.436 713.951,175.436 715.5,176.5C 725.395,195.291 740.729,207.125 761.5,212C 766.04,212.947 770.374,212.447 774.5,210.5C 777.557,202.054 780.89,193.721 784.5,185.5C 753.635,188.801 739.802,174.801 743,143.5C 745.649,133.572 747.982,123.572 750,113.5C 756.489,95.8365 768.989,89.0031 787.5,93C 797.75,95.7492 804.083,102.249 806.5,112.5C 818.007,113.824 829.673,113.824 841.5,112.5C 841.376,111.893 841.043,111.56 840.5,111.5C 839.168,102.836 835.668,95.1694 830,88.5C 808.095,63.7325 781.595,57.2325 750.5,69C 745.445,71.8572 740.445,74.6905 735.5,77.5C 733.629,77.8588 732.129,78.8588 731,80.5C 729.933,79.8095 728.766,79.3095 727.5,79C 727.833,78.6667 728.167,78.3333 728.5,78C 727.809,76.9326 727.309,75.7659 727,74.5C 726.333,76.5 725.667,78.5 725,80.5C 724.667,79.5 724.333,78.5 724,77.5C 722.807,79.6051 721.14,81.2718 719,82.5C 718.075,81.9535 717.242,81.2868 716.5,80.5C 717.833,79.5 719.167,78.5 720.5,77.5C 720.154,76.3044 719.654,76.3044 719,77.5C 718.333,74.8333 718.333,72.1667 719,69.5C 720.32,69.201 721.82,69.0343 723.5,69C 724.337,67.9887 724.67,66.8221 724.5,65.5C 727.572,65.8174 730.572,65.4841 733.5,64.5C 731.738,62.537 730.071,61.2037 728.5,60.5C 730.04,59.4679 730.54,58.1346 730,56.5C 728.197,56.0945 726.364,56.5945 724.5,58C 725.167,58.6667 725.833,59.3333 726.5,60C 724.519,60.6054 724.185,61.6054 725.5,63C 722.964,63.0354 720.298,63.5354 717.5,64.5C 718.028,59.8437 716.362,58.677 712.5,61C 712.833,61.3333 713.167,61.6667 713.5,62C 710.462,65.1964 710.962,66.0298 715,64.5C 715.645,65.646 716.478,66.646 717.5,67.5C 716.471,67.2964 715.471,67.7964 714.5,69C 714.833,69.3333 715.167,69.6667 715.5,70C 712.833,70.6667 712.833,71.3333 715.5,72C 715.337,74.1885 714.337,76.3552 712.5,78.5C 711.808,77.9747 711.308,77.3081 711,76.5C 709.991,78.0249 709.491,79.6916 709.5,81.5C 710.5,81.5 711.5,81.5 712.5,81.5C 712.498,83.8309 713.331,85.8309 715,87.5C 715.333,87.1667 715.667,86.8333 716,86.5C 716.283,89.7423 717.117,90.0756 718.5,87.5C 719.716,88.0016 720.883,88.3349 722,88.5C 724.173,85.723 724.673,85.8897 723.5,89C 722.207,89.49 720.873,89.6567 719.5,89.5C 719.421,90.9305 719.754,92.2638 720.5,93.5C 719,96.5 717.5,99.5 716,102.5C 714.43,97.223 712.763,97.223 711,102.5C 710,99.8333 709,99.8333 708,102.5C 707.311,101.643 706.478,100.977 705.5,100.5C 702.972,101.498 702.972,102.331 705.5,103C 704.069,103.465 702.903,104.299 702,105.5C 700.68,105.201 699.18,105.034 697.5,105C 698.5,103.333 699.5,101.667 700.5,100C 698.099,99.195 698.266,98.3617 701,97.5C 701.324,99.5689 702.158,99.9023 703.5,98.5C 703.533,97.011 704.033,95.6776 705,94.5C 705.483,95.448 705.649,96.448 705.5,97.5C 707.451,97.2267 708.951,97.8934 710,99.5C 710.833,98.6667 711.667,97.8333 712.5,97C 712.43,95.3764 711.93,93.5431 711,91.5C 710.751,92.624 710.251,93.624 709.5,94.5C 708.403,92.771 707.237,91.1044 706,89.5C 704.667,90.8333 703.333,92.1667 702,93.5C 699.915,92.3531 698.415,93.0197 697.5,95.5C 695.257,96.4742 692.924,96.8076 690.5,96.5C 690.617,94.5165 689.95,92.8498 688.5,91.5C 689.326,90.549 689.492,89.549 689,88.5C 688.333,89.8333 687.667,89.8333 687,88.5C 686.085,89.3279 685.419,90.3279 685,91.5C 684.028,89.6951 682.861,88.0284 681.5,86.5C 680.914,86.7093 680.414,87.0426 680,87.5C 680.038,84.8427 681.205,82.6761 683.5,81C 681.567,80.2174 680.067,80.7174 679,82.5C 678.667,81.8333 678.333,81.1667 678,80.5C 677.282,81.4506 676.449,81.6172 675.5,81C 674.366,79.984 674.699,79.3173 676.5,79C 675.359,78.2588 675.359,77.4255 676.5,76.5C 675.624,75.7492 674.624,75.2492 673.5,75C 674.787,73.5905 675.954,72.0905 677,70.5C 678.818,72.6454 680.318,72.6454 681.5,70.5C 683.677,71.5042 684.011,70.8375 682.5,68.5C 683,68.1667 683.5,67.8333 684,67.5C 685.722,67.6107 685.888,68.1107 684.5,69C 685.191,70.0674 685.691,71.2341 686,72.5C 686.333,71.8333 686.667,71.1667 687,70.5C 688.487,71.2529 688.654,72.0862 687.5,73C 688.428,73.3879 689.095,74.0546 689.5,75C 689.108,76.0105 688.441,76.5105 687.5,76.5C 691.639,79.7727 692.972,79.106 691.5,74.5C 693.201,74.0338 694.701,74.0338 696,74.5C 696.216,72.6161 696.883,70.9494 698,69.5C 700.229,72.1562 702.062,71.8229 703.5,68.5C 704.665,69.4911 705.832,70.4911 707,71.5C 707.5,71.3333 708,71.1667 708.5,71C 707.353,68.9154 708.02,67.4154 710.5,66.5C 709.846,64.8849 709.346,63.2182 709,61.5C 708.581,62.6721 707.915,63.6721 707,64.5C 706.727,62.8988 706.227,61.3988 705.5,60C 706.784,59.3162 707.951,59.4829 709,60.5C 709.613,57.8015 710.28,55.1348 711,52.5C 712.147,51.5419 713.147,51.8753 714,53.5C 716.96,51.0837 717.46,48.5837 715.5,46C 717.211,44.8668 717.711,43.3668 717,41.5C 716.167,42.5 715.333,43.5 714.5,44.5C 713.5,43.8333 712.5,43.1667 711.5,42.5C 710.3,43.5312 708.966,44.3645 707.5,45C 710.201,46.3935 712.534,47.5601 714.5,48.5C 712.784,48.9972 711.117,49.3306 709.5,49.5C 707.729,48.9646 707.396,48.1313 708.5,47C 707.668,46.3123 707.002,46.479 706.5,47.5C 705.96,48.7481 705.293,49.9148 704.5,51C 705.167,51.3333 705.833,51.6667 706.5,52C 704.998,52.5831 703.665,53.4164 702.5,54.5C 703.641,55.4255 703.641,56.2588 702.5,57C 704.807,58.8276 704.474,60.4943 701.5,62C 701.952,63.6124 703.285,64.6124 705.5,65C 704.416,67.8249 703.249,67.9915 702,65.5C 701.667,65.8333 701.333,66.1667 701,66.5C 700.667,65.1667 700.333,63.8333 700,62.5C 698.474,62.5274 696.974,63.0274 695.5,64C 696.022,63.4387 696.355,62.772 696.5,62C 695.205,61.2975 693.872,60.6309 692.5,60C 693.308,59.6924 693.975,59.1924 694.5,58.5C 692.112,55.5176 692.612,52.851 696,50.5C 696.333,50.8333 696.667,51.1667 697,51.5C 698.636,49.4503 700.802,48.4503 703.5,48.5C 703.357,46.7376 703.691,45.0709 704.5,43.5C 703.263,42.7193 702.263,41.7193 701.5,40.5C 702.771,40.8745 703.938,40.2078 705,38.5C 705.333,39.1667 705.667,39.8333 706,40.5C 706.645,39.354 707.478,38.354 708.5,37.5C 707.833,36.5 707.167,35.5 706.5,34.5C 708.131,31.4036 710.131,28.5702 712.5,26C 711.747,24.513 710.914,24.3463 710,25.5C 709.219,24.0563 709.386,22.723 710.5,21.5C 711.842,22.9023 712.676,22.5689 713,20.5C 714.718,22.2021 714.885,24.0355 713.5,26C 714.766,26.3095 715.933,26.8095 717,27.5C 717.456,26.2559 716.956,25.4226 715.5,25C 716.108,24.1301 716.941,23.6301 718,23.5C 721.29,25.6083 723.457,24.4417 724.5,20C 723.328,18.1077 723.828,16.6077 726,15.5C 727.953,17.9995 730.286,18.6661 733,17.5C 736.5,19.6667 736.333,21.5 732.5,23C 733.672,23.4186 734.672,24.0853 735.5,25C 734.72,26.073 734.887,27.2396 736,28.5C 736.68,25.6584 738.18,22.825 740.5,20C 738.122,19.0255 738.456,18.3589 741.5,18C 737.707,17.8798 736.207,16.0465 737,12.5C 737.414,12.9574 737.914,13.2907 738.5,13.5C 739.541,11.0087 740.374,11.0087 741,13.5C 746.748,8.54312 746.414,5.87645 740,5.5C 738.148,3.77028 738.314,2.60361 740.5,2C 738.881,1.76445 737.881,0.931117 737.5,-0.5 Z"/></g>
<g><path style="opacity:1" fill="#060604" d="M 352.5,86.5 C 352.5,128.167 352.5,169.833 352.5,211.5C 344.167,211.5 335.833,211.5 327.5,211.5C 327.5,197.167 327.5,182.833 327.5,168.5C 327.5,140.833 327.5,113.167 327.5,85.5C 335.918,85.1981 344.252,85.5314 352.5,86.5 Z"/></g>
<g><path style="opacity:1" fill="#fdfdfc" d="M 327.5,168.5 C 327.5,182.833 327.5,197.167 327.5,211.5C 335.833,211.5 344.167,211.5 352.5,211.5C 352.5,169.833 352.5,128.167 352.5,86.5C 353.5,127.761 353.833,169.761 353.5,212.5C 344.5,212.5 335.5,212.5 326.5,212.5C 326.171,197.657 326.504,182.99 327.5,168.5 Z"/></g>
<g><path style="opacity:1" fill="#f89d0e" d="M 840.5,111.5 C 829.346,112.495 818.012,112.828 806.5,112.5C 804.083,102.249 797.75,95.7492 787.5,93C 768.989,89.0031 756.489,95.8365 750,113.5C 747.982,123.572 745.649,133.572 743,143.5C 739.802,174.801 753.635,188.801 784.5,185.5C 780.89,193.721 777.557,202.054 774.5,210.5C 770.374,212.447 766.04,212.947 761.5,212C 740.729,207.125 725.395,195.291 715.5,176.5C 709.392,156.013 708.892,135.346 714,114.5C 717.067,99.6879 724.234,87.3546 735.5,77.5C 740.445,74.6905 745.445,71.8572 750.5,69C 781.595,57.2325 808.095,63.7325 830,88.5C 835.668,95.1694 839.168,102.836 840.5,111.5 Z"/></g>
<g><path style="opacity:1" fill="#f2d89f" d="M 840.5,111.5 C 841.043,111.56 841.376,111.893 841.5,112.5C 829.673,113.824 818.007,113.824 806.5,112.5C 818.012,112.828 829.346,112.495 840.5,111.5 Z"/></g>
<g><path style="opacity:1" fill="#080805" d="M 452.5,210.5 C 444.833,210.5 437.167,210.5 429.5,210.5C 429.83,191.659 429.497,172.993 428.5,154.5C 428.827,138.659 421.161,131.826 405.5,134C 398.185,135.316 393.352,139.483 391,146.5C 390.5,168.164 390.333,189.831 390.5,211.5C 382.913,211.814 375.413,211.481 368,210.5C 367.5,179.168 367.333,147.835 367.5,116.5C 374.5,116.5 381.5,116.5 388.5,116.5C 388.335,119.85 388.502,123.183 389,126.5C 401.061,114.552 415.228,111.385 431.5,117C 443.815,122.432 450.648,131.932 452,145.5C 452.5,167.164 452.667,188.831 452.5,210.5 Z"/></g>
<g><path style="opacity:1" fill="#040402" d="M 548.5,146.5 C 548.5,167.833 548.5,189.167 548.5,210.5C 541.167,210.5 533.833,210.5 526.5,210.5C 526.83,193.325 526.497,176.325 525.5,159.5C 525.893,153.322 525.06,147.322 523,141.5C 514.262,132.397 504.428,131.23 493.5,138C 489.242,142.272 487.242,147.439 487.5,153.5C 487.5,172.5 487.5,191.5 487.5,210.5C 480.5,210.5 473.5,210.5 466.5,210.5C 465.662,210.158 465.328,209.492 465.5,208.5C 465.5,177.833 465.5,147.167 465.5,116.5C 472.167,116.5 478.833,116.5 485.5,116.5C 485.504,120.254 485.337,123.921 485,127.5C 497.016,114.28 511.516,110.78 528.5,117C 541.232,122.608 547.899,132.441 548.5,146.5 Z"/></g>
<g><path style="opacity:1" fill="#060604" d="M 593.5,114.5 C 630.867,113.535 648.867,131.869 647.5,169.5C 625.5,169.5 603.5,169.5 581.5,169.5C 580.2,181.669 585.2,189.835 596.5,194C 605.027,195.569 613.027,194.235 620.5,190C 627.27,182.721 635.603,178.888 645.5,178.5C 645.449,189.768 640.783,198.601 631.5,205C 613.269,214.974 594.935,214.974 576.5,205C 565.608,197.388 559.774,186.888 559,173.5C 555.567,153.015 561.401,135.849 576.5,122C 582.032,118.894 587.699,116.394 593.5,114.5 Z"/></g>
<g><path style="opacity:1" fill="#040402" d="M 692.5,115.5 C 696.167,115.5 699.833,115.5 703.5,115.5C 703.5,122.5 703.5,129.5 703.5,136.5C 695.19,135.548 688.023,137.882 682,143.5C 681.138,145.087 680.471,146.754 680,148.5C 679.5,169.497 679.333,190.497 679.5,211.5C 671.833,211.5 664.167,211.5 656.5,211.5C 656.5,179.833 656.5,148.167 656.5,116.5C 663.167,116.5 669.833,116.5 676.5,116.5C 676.334,120.514 676.501,124.514 677,128.5C 680.869,122.452 686.035,118.118 692.5,115.5 Z"/></g>
<g><path style="opacity:1" fill="#f6f0e3" d="M 623.5,152.5 C 609.459,153.149 595.792,152.482 582.5,150.5C 584.31,139.527 590.81,133.527 602,132.5C 615.188,132.858 622.355,139.525 623.5,152.5 Z"/></g>
<g><path style="opacity:1" fill="#797a70" d="M 582.5,150.5 C 595.792,152.482 609.459,153.149 623.5,152.5C 609.677,153.496 595.677,153.829 581.5,153.5C 581.263,152.209 581.596,151.209 582.5,150.5 Z"/></g>
<g><path style="opacity:1" fill="#a6a699" d="M 465.5,116.5 C 465.5,147.167 465.5,177.833 465.5,208.5C 464.883,208.611 464.383,208.944 464,209.5C 463.333,178.833 463.333,148.167 464,117.5C 464.383,116.944 464.883,116.611 465.5,116.5 Z"/></g>
<g><path style="opacity:1" fill="#f89d0e" d="M 775.5,135.5 C 798.833,135.5 822.167,135.5 845.5,135.5C 841.584,156.497 836.417,177.163 830,197.5C 822.282,204.274 814.115,210.441 805.5,216C 789.619,231.514 773.453,246.681 757,261.5C 769.544,227.72 782.711,194.054 796.5,160.5C 786.151,159.762 775.818,159.095 765.5,158.5C 767.48,150.211 770.813,142.544 775.5,135.5 Z"/></g>
<g><path style="opacity:1" fill="#606057" d="M 428.5,154.5 C 429.497,172.993 429.83,191.659 429.5,210.5C 437.167,210.5 444.833,210.5 452.5,210.5C 444.684,211.492 436.684,211.826 428.5,211.5C 428.5,192.5 428.5,173.5 428.5,154.5 Z"/></g>
<g><path style="opacity:1" fill="#a4a396" d="M 487.5,153.5 C 489.189,172.356 490.023,191.356 490,210.5C 482.068,211.827 474.235,211.827 466.5,210.5C 473.5,210.5 480.5,210.5 487.5,210.5C 487.5,191.5 487.5,172.5 487.5,153.5 Z"/></g>
<g><path style="opacity:1" fill="#123a2b" d="M 200.5,267.5 C 186.839,271.776 172.839,273.442 158.5,272.5C 105.719,264.544 70.2187,235.544 52,185.5C 40.725,145.373 47.0583,108.373 71,74.5C 102.535,37.9817 142.368,23.1483 190.5,30C 241.846,40.012 274.679,70.1786 289,120.5C 297.257,172.409 281.09,214.909 240.5,248C 228.372,256.897 215.039,263.397 200.5,267.5 Z"/></g>
<g><path style="opacity:1" fill="#f5efe2" d="M 177.5,38.5 C 225.136,43.4071 257.97,68.0738 276,112.5C 286.227,147.59 281.727,180.59 262.5,211.5C 261.325,211.281 260.325,211.614 259.5,212.5C 254.226,220.108 248.226,227.108 241.5,233.5C 232.151,241.172 222.151,247.839 211.5,253.5C 203.152,257.171 194.486,259.838 185.5,261.5C 175.5,261.5 165.5,261.5 155.5,261.5C 114.068,254.066 83.9013,231.733 65,194.5C 43.9672,139.283 56.8005,93.7833 103.5,58C 114.057,51.7195 125.057,46.5528 136.5,42.5C 149.952,39.1443 163.619,37.811 177.5,38.5 Z"/></g>
<g><path style="opacity:1" fill="#819384" d="M 118.5,179.5 C 118.389,180.117 118.056,180.617 117.5,181C 110.118,183.508 102.784,186.008 95.5,188.5C 102.696,184.541 110.363,181.541 118.5,179.5 Z"/></g>
<g><path style="opacity:1" fill="#143d2d" d="M 221.5,155.5 C 227.537,155.171 233.537,155.504 239.5,156.5C 234.188,164.1 227.022,167.1 218,165.5C 217.333,162.833 217.333,160.167 218,157.5C 219.302,156.915 220.469,156.249 221.5,155.5 Z"/></g>
<g><path style="opacity:1" fill="#153e2f" d="M 96.5,154.5 C 104.175,155.144 111.842,155.977 119.5,157C 121.507,166.478 117.84,169.145 108.5,165C 103.05,163.043 99.0496,159.543 96.5,154.5 Z"/></g>
<g><path style="opacity:1" fill="#4c6b5b" d="M 208.5,132.5 C 210.801,140.871 211.801,149.538 211.5,158.5C 209.885,150.047 208.885,141.38 208.5,132.5 Z"/></g>
<g><path style="opacity:1" fill="#133c2d" d="M 249.5,129.5 C 250.649,129.791 251.316,130.624 251.5,132C 250.241,137.867 247.241,142.534 242.5,146C 233.629,148.644 224.629,150.311 215.5,151C 214.54,147.27 214.207,143.437 214.5,139.5C 226.613,137.347 238.279,134.013 249.5,129.5 Z"/></g>
<g><path style="opacity:1" fill="#184233" d="M 89.5,129.5 C 93.5225,131.734 97.8558,133.401 102.5,134.5C 109.203,136.289 115.869,138.289 122.5,140.5C 123.487,143.768 123.82,147.102 123.5,150.5C 113.52,149.007 103.52,147.507 93.5,146C 88.9911,141.146 85.9911,135.479 84.5,129C 86.3869,128.22 88.0536,128.387 89.5,129.5 Z"/></g>
<g><path style="opacity:1" fill="#93a393" d="M 253.5,120.5 C 253.489,122.017 252.823,123.184 251.5,124C 239.78,128.866 227.78,133.032 215.5,136.5C 214.558,136.392 213.725,136.059 213,135.5C 212.199,132.633 212.366,129.966 213.5,127.5C 213.5,129.833 213.5,132.167 213.5,134.5C 227.269,130.943 240.602,126.276 253.5,120.5 Z"/></g>
<g><path style="opacity:1" fill="#778c7c" d="M 89.5,129.5 C 93.5532,130.35 97.5532,131.516 101.5,133C 102.056,133.383 102.389,133.883 102.5,134.5C 97.8558,133.401 93.5225,131.734 89.5,129.5 Z"/></g>
<g><path style="opacity:1" fill="#718979" d="M 91.5,108.5 C 84.8866,109.197 82.72,112.864 85,119.5C 85.3076,120.308 85.8076,120.975 86.5,121.5C 98.5504,126.694 110.884,131.028 123.5,134.5C 121.034,135.634 118.367,135.801 115.5,135C 105.218,130.847 94.8851,126.847 84.5,123C 80.2197,117.319 80.5531,111.985 85.5,107C 87.8805,106.262 89.8805,106.762 91.5,108.5 Z"/></g>
<g><path style="opacity:1" fill="#688171" d="M 105.5,115.5 C 111.87,118.679 117.87,122.346 123.5,126.5C 117.608,124.221 111.941,121.387 106.5,118C 105.748,117.329 105.414,116.496 105.5,115.5 Z"/></g>
<g><path style="opacity:1" fill="#889b8b" d="M 236.5,113.5 C 229.003,118.416 221.337,123.083 213.5,127.5C 213.414,126.504 213.748,125.671 214.5,125C 221.698,120.901 229.031,117.068 236.5,113.5 Z"/></g>
<g><path style="opacity:1" fill="#164131" d="M 251.5,108.5 C 252.458,108.953 253.292,109.619 254,110.5C 254.747,113.924 254.58,117.257 253.5,120.5C 240.602,126.276 227.269,130.943 213.5,134.5C 213.5,132.167 213.5,129.833 213.5,127.5C 221.337,123.083 229.003,118.416 236.5,113.5C 241.604,112.113 246.604,110.446 251.5,108.5 Z"/></g>
<g><path style="opacity:1" fill="#627c6d" d="M 251.5,108.5 C 246.604,110.446 241.604,112.113 236.5,113.5C 241.004,109.718 246.004,108.052 251.5,108.5 Z"/></g>
<g><path style="opacity:1" fill="#164131" d="M 91.5,108.5 C 96.1667,110.833 100.833,113.167 105.5,115.5C 105.414,116.496 105.748,117.329 106.5,118C 111.941,121.387 117.608,124.221 123.5,126.5C 123.5,129.167 123.5,131.833 123.5,134.5C 110.884,131.028 98.5504,126.694 86.5,121.5C 85.8076,120.975 85.3076,120.308 85,119.5C 82.72,112.864 84.8866,109.197 91.5,108.5 Z"/></g>
<g><path style="opacity:1" fill="#194535" d="M 182.5,68.5 C 183.793,69.842 184.626,71.5087 185,73.5C 185.333,77.5 185.667,81.5 186,85.5C 187.236,86.3992 188.07,87.5659 188.5,89C 185.948,98.0463 180.615,104.88 172.5,109.5C 183.381,114.266 194.381,119.1 205.5,124C 207.585,126.419 208.585,129.253 208.5,132.5C 208.885,141.38 209.885,150.047 211.5,158.5C 212.059,164.2 212.892,169.867 214,175.5C 222.768,181.298 232.268,185.632 242.5,188.5C 243.154,193.258 242.487,197.925 240.5,202.5C 236.714,204.036 233.214,206.036 230,208.5C 229.667,213.167 229.333,217.833 229,222.5C 227.887,223.305 226.721,223.972 225.5,224.5C 216.18,224.545 207.18,225.878 198.5,228.5C 195.794,228.575 193.127,228.908 190.5,229.5C 175.5,230.833 160.5,230.833 145.5,229.5C 134.626,227.2 123.626,225.7 112.5,225C 111.333,223.833 110.167,222.667 109,221.5C 108.667,217.167 108.333,212.833 108,208.5C 104.333,206.5 100.667,204.5 97,202.5C 95.5295,198.589 94.3628,194.589 93.5,190.5C 93.7472,189.287 94.4138,188.62 95.5,188.5C 102.784,186.008 110.118,183.508 117.5,181C 118.056,180.617 118.389,180.117 118.5,179.5C 120.441,178.326 121.941,176.659 123,174.5C 124.89,158.158 126.89,141.824 129,125.5C 135.548,122.142 142.048,118.642 148.5,115C 153.958,113.47 159.292,111.637 164.5,109.5C 155.202,105.426 150.202,98.2588 149.5,88C 150.193,83.1902 150.693,78.3569 151,73.5C 152.697,70.98 154.53,68.6467 156.5,66.5C 165.699,59.4464 174.365,60.1131 182.5,68.5 Z"/></g>
<g><path style="opacity:1" fill="#f4efe2" d="M 197.5,161.5 C 199.173,162.343 200.34,163.676 201,165.5C 202.136,173.018 203.97,180.351 206.5,187.5C 210.332,190.25 214.332,192.75 218.5,195C 212.176,197.864 205.509,199.198 198.5,199C 193.442,203.057 188.108,206.724 182.5,210C 180.5,210.667 178.5,210.667 176.5,210C 181.023,204.48 185.856,199.313 191,194.5C 190.042,189.924 189.709,185.257 190,180.5C 193.067,174.37 195.567,168.036 197.5,161.5 Z"/></g>
<g><path style="opacity:1" fill="#7a8f80" d="M 135.5,164.5 C 135.199,170.511 134.699,176.511 134,182.5C 133.768,183.737 133.268,184.737 132.5,185.5C 133,178.294 134,171.294 135.5,164.5 Z"/></g>
<g><path style="opacity:1" fill="#6e8675" d="M 161.5,162.5 C 161.201,164.604 161.534,166.604 162.5,168.5C 163.622,167.37 164.956,166.703 166.5,166.5C 165.452,168.534 163.786,169.867 161.5,170.5C 160.2,167.691 160.2,165.024 161.5,162.5 Z"/></g>
<g><path style="opacity:1" fill="#f1eddf" d="M 132.5,185.5 C 133.268,184.737 133.768,183.737 134,182.5C 134.699,176.511 135.199,170.511 135.5,164.5C 135.784,161.746 136.451,159.08 137.5,156.5C 138.892,157.605 140.059,158.939 141,160.5C 143.339,166.51 145.673,172.51 148,178.5C 147.37,183.451 147.037,188.451 147,193.5C 152.52,199.685 158.687,205.185 165.5,210C 162.793,210.328 160.126,209.995 157.5,209C 152.833,206.333 148.167,203.667 143.5,201C 136.062,200.508 129.062,198.508 122.5,195C 125.729,191.601 129.062,188.435 132.5,185.5 Z"/></g>
<g><path style="opacity:1" fill="#f3efe2" d="M 166.5,166.5 C 164.956,166.703 163.622,167.37 162.5,168.5C 161.534,166.604 161.201,164.604 161.5,162.5C 160.564,159.041 158.564,156.207 155.5,154C 158.864,153.273 162.197,152.44 165.5,151.5C 166.604,149.611 167.937,147.945 169.5,146.5C 171.288,148.576 172.954,150.743 174.5,153C 182.776,152.166 183.943,153.999 178,158.5C 177.457,161.868 177.624,165.201 178.5,168.5C 175.538,167.939 172.705,166.939 170,165.5C 168.862,165.989 167.695,166.322 166.5,166.5 Z"/></g>
<g><path style="opacity:1" fill="#8f9f8e" d="M 182.5,68.5 C 174.365,60.1131 165.699,59.4464 156.5,66.5C 159.016,61.4861 163.182,59.1528 169,59.5C 173.037,59.104 176.537,60.2707 179.5,63C 181.16,64.4877 182.16,66.321 182.5,68.5 Z"/></g>
<g><path style="opacity:1" fill="#031508" d="M 177.5,38.5 C 163.619,37.811 149.952,39.1443 136.5,42.5C 137.565,41.1354 139.565,40.3021 142.5,40C 146.795,39.0881 151.128,38.4215 155.5,38C 165.548,37.1731 172.881,37.3398 177.5,38.5 Z"/></g>
<g><path style="opacity:1" fill="#4a4a42" d="M 548.5,146.5 C 549.497,167.994 549.831,189.66 549.5,211.5C 541.5,211.5 533.5,211.5 525.5,211.5C 525.5,194.167 525.5,176.833 525.5,159.5C 526.497,176.325 526.83,193.325 526.5,210.5C 533.833,210.5 541.167,210.5 548.5,210.5C 548.5,189.167 548.5,167.833 548.5,146.5 Z"/></g>
<g><path style="opacity:1" fill="#9faa9a" d="M 262.5,211.5 C 256.885,219.449 250.552,226.782 243.5,233.5C 242.833,233.5 242.167,233.5 241.5,233.5C 248.226,227.108 254.226,220.108 259.5,212.5C 260.325,211.614 261.325,211.281 262.5,211.5 Z"/></g>
<g><path style="opacity:1" fill="#b1bbac" d="M 225.5,224.5 C 216.702,226.32 207.702,227.653 198.5,228.5C 207.18,225.878 216.18,224.545 225.5,224.5 Z"/></g>
<g><path style="opacity:1" fill="#93a292" d="M 145.5,229.5 C 160.5,230.833 175.5,230.833 190.5,229.5C 183.056,230.99 175.389,231.656 167.5,231.5C 159.938,231.679 152.605,231.012 145.5,229.5 Z"/></g>
<g><path style="opacity:1" fill="#516f5f" d="M 241.5,233.5 C 242.167,233.5 242.833,233.5 243.5,233.5C 234.098,241.714 223.764,248.714 212.5,254.5C 211.893,254.376 211.56,254.043 211.5,253.5C 222.151,247.839 232.151,241.172 241.5,233.5 Z"/></g>
<g><path style="opacity:1" fill="#9eaa98" d="M 155.5,261.5 C 165.5,261.5 175.5,261.5 185.5,261.5C 175.493,264.072 165.493,264.072 155.5,261.5 Z"/></g>
<g><path style="opacity:1" fill="#9da999" d="M 200.5,267.5 C 196.55,268.656 193.05,270.656 190,273.5C 179.42,273.668 168.92,273.334 158.5,272.5C 172.839,273.442 186.839,271.776 200.5,267.5 Z"/></g>
</svg>
